<svg width="306" height="48" viewBox="0 0 306 48" fill="none" xmlns="http://www.w3.org/2000/svg">
<path d="M36.224 2.0233H13.0305C11.0457 2.0233 9.4375 3.63146 9.4375 5.61628V19.0741H19.5711C21.3337 19.0741 22.7641 20.5045 22.7641 22.2671V32.4007H36.059C38.1327 32.4007 39.8149 30.7185 39.8149 28.6448V5.61628C39.8149 3.63146 38.2067 2.0233 36.224 2.0233Z" fill="#181B22"/>
<path d="M12.6304 32.4029C10.8678 32.4029 9.43739 30.9725 9.43739 29.2098V19.0763H3.59298C1.60816 19.0763 0 20.6844 0 22.6693V38.2494C0 40.2342 1.60816 41.8424 3.59298 41.8424H19.1731C21.1579 41.8424 22.7661 40.2342 22.7661 38.2494V32.405H12.6304V32.4029Z" fill="#181B22"/>
<path d="M19.5711 19.0741H9.4375V29.2077C9.4375 30.9703 10.8679 32.4007 12.6306 32.4007H22.7641V22.2672C22.7641 20.5046 21.3337 19.0741 19.5711 19.0741Z" fill="#EEFD7D"/>
<path d="M284.836 20.2717C285.233 15.6906 287.176 14.4464 291.209 14.4464C295.242 14.4464 297.134 15.6906 297.682 20.2717H284.836ZM277.417 23.0606C277.417 32.7202 282.893 37.1003 291.209 37.1003C297.881 37.1003 302.61 34.4109 304.303 28.4861H297.134C296.237 30.9745 294.396 31.7214 291.209 31.7214C286.429 31.7214 285.085 30.0794 284.736 24.8994H304.9C304.9 24.3027 304.95 23.7039 304.95 23.0564C304.95 13.4963 299.673 9.06535 291.209 9.06535C282.745 9.06535 277.417 13.4963 277.417 23.0564V23.0606ZM265.965 36.802H273.333V2H265.965V36.802ZM241.369 23.1601C241.369 16.1899 243.26 14.4971 247.99 14.4971C252.719 14.4971 254.562 16.1899 254.562 23.1601C254.562 30.1302 252.869 31.7235 247.99 31.7235C243.11 31.7235 241.369 30.0307 241.369 23.1601ZM234.2 36.802H241.369V33.4163H241.519C242.465 34.6606 244.606 37.1003 249.634 37.1003C256.655 37.1003 261.932 32.7689 261.932 23.1601C261.932 13.5513 256.655 9.16903 249.634 9.16903C244.606 9.16903 242.465 11.6088 241.519 12.8043H241.369V2H234.2V36.802ZM208.807 23.1601C208.807 16.1899 210.65 14.4971 215.38 14.4971C220.109 14.4971 221.952 16.1899 221.952 23.1601C221.952 30.1302 220.208 31.7235 215.38 31.7235C210.551 31.7235 208.807 30.0307 208.807 23.1601ZM201.539 23.1601C201.539 32.7689 206.768 37.1003 213.738 37.1003C218.765 37.1003 220.858 34.6606 221.903 33.4163H222.054V36.802H229.223V9.46739H222.054V12.8022H221.903C220.858 11.6067 218.767 9.16691 213.738 9.16691C206.768 9.16691 201.539 13.4984 201.539 23.1579V23.1601ZM178.039 23.1601C178.039 16.1899 179.882 14.4971 184.71 14.4971C189.539 14.4971 191.232 16.1899 191.232 23.1601C191.232 30.1302 189.488 31.7235 184.71 31.7235C179.932 31.7235 178.039 30.0307 178.039 23.1601ZM170.819 44.3201H177.988V33.4163H178.138C179.183 34.6606 181.325 37.1003 186.352 37.1003C193.323 37.1003 198.551 32.7689 198.551 23.1601C198.551 13.5513 193.323 9.16903 186.352 9.16903C181.325 9.16903 179.183 11.6088 178.138 12.8043H177.988V9.4695H170.819V44.3201ZM146.324 23.1601C146.324 16.1899 148.067 14.4971 152.896 14.4971C157.725 14.4971 159.469 16.1899 159.469 23.1601C159.469 30.1302 157.676 31.7235 152.896 31.7235C148.116 31.7235 146.324 30.0307 146.324 23.1601ZM139.055 44.3201H146.224V33.4163H146.375C147.42 34.6606 149.511 37.1003 154.589 37.1003C161.51 37.1003 166.737 32.7689 166.737 23.1601C166.737 13.5513 161.508 9.16903 154.589 9.16903C149.511 9.16903 147.42 11.6088 146.375 12.8043H146.224V9.4695H139.055V44.3201ZM113.714 23.1601C113.714 16.1899 115.506 14.4971 120.286 14.4971C125.066 14.4971 126.808 16.1899 126.808 23.1601C126.808 30.1302 125.016 31.7235 120.286 31.7235C115.557 31.7235 113.714 30.0307 113.714 23.1601ZM106.395 23.1601C106.395 32.7689 111.623 37.1003 118.642 37.1003C123.67 37.1003 125.811 34.6606 126.709 33.4163H126.907V36.802H134.127V9.46739H126.907V12.8022H126.709C125.811 11.6067 123.672 9.16691 118.642 9.16691C111.621 9.16691 106.395 13.4984 106.395 23.1579V23.1601ZM62.5808 36.802H69.8006V8.42208H69.9995L78.2139 36.802H86.5784L94.6933 8.42208H94.9917V36.802H102.161V2H89.9619L82.4945 29.7324H82.2956L74.7796 2H62.5808V36.802Z" fill="#181B22"/>
</svg>
